<mxfile host="app.diagrams.net" agent="Mozilla/5.0 (Windows NT 10.0; Win64; x64) AppleWebKit/537.36 (KHTML, like Gecko) Chrome/127.0.0.0 Safari/537.36" version="24.7.7">
  <diagram name="Sayfa -1" id="HxYdXNdD7ZpoUvbqEJmY">
    <mxGraphModel dx="4924" dy="3398" grid="1" gridSize="10" guides="1" tooltips="1" connect="1" arrows="1" fold="1" page="1" pageScale="1" pageWidth="827" pageHeight="1169" math="0" shadow="0">
      <root>
        <mxCell id="0" />
        <mxCell id="1" parent="0" />
        <mxCell id="Jdnp4UXDm0SpbqNn2VA3-28" style="edgeStyle=orthogonalEdgeStyle;rounded=0;orthogonalLoop=1;jettySize=auto;html=1;exitX=1;exitY=0;exitDx=0;exitDy=0;entryX=0;entryY=0.5;entryDx=0;entryDy=0;" parent="1" source="Jdnp4UXDm0SpbqNn2VA3-3" target="Jdnp4UXDm0SpbqNn2VA3-39" edge="1">
          <mxGeometry relative="1" as="geometry">
            <mxPoint x="720" y="200" as="targetPoint" />
          </mxGeometry>
        </mxCell>
        <mxCell id="Jdnp4UXDm0SpbqNn2VA3-29" style="edgeStyle=orthogonalEdgeStyle;rounded=0;orthogonalLoop=1;jettySize=auto;html=1;exitX=1;exitY=1;exitDx=0;exitDy=0;entryX=0;entryY=0.5;entryDx=0;entryDy=0;" parent="1" source="Jdnp4UXDm0SpbqNn2VA3-3" target="Jdnp4UXDm0SpbqNn2VA3-38" edge="1">
          <mxGeometry relative="1" as="geometry">
            <mxPoint x="730" y="340" as="targetPoint" />
          </mxGeometry>
        </mxCell>
        <mxCell id="Jdnp4UXDm0SpbqNn2VA3-30" style="edgeStyle=orthogonalEdgeStyle;rounded=0;orthogonalLoop=1;jettySize=auto;html=1;exitX=0.5;exitY=1;exitDx=0;exitDy=0;entryX=0;entryY=0.5;entryDx=0;entryDy=0;" parent="1" source="Jdnp4UXDm0SpbqNn2VA3-3" target="Jdnp4UXDm0SpbqNn2VA3-37" edge="1">
          <mxGeometry relative="1" as="geometry">
            <mxPoint x="530" y="360" as="targetPoint" />
          </mxGeometry>
        </mxCell>
        <mxCell id="Jdnp4UXDm0SpbqNn2VA3-31" style="edgeStyle=orthogonalEdgeStyle;rounded=0;orthogonalLoop=1;jettySize=auto;html=1;exitX=0;exitY=0;exitDx=0;exitDy=0;entryX=0.5;entryY=1;entryDx=0;entryDy=0;" parent="1" source="Jdnp4UXDm0SpbqNn2VA3-3" target="Jdnp4UXDm0SpbqNn2VA3-41" edge="1">
          <mxGeometry relative="1" as="geometry">
            <mxPoint x="550" y="160" as="targetPoint" />
          </mxGeometry>
        </mxCell>
        <mxCell id="Jdnp4UXDm0SpbqNn2VA3-42" style="edgeStyle=orthogonalEdgeStyle;rounded=0;orthogonalLoop=1;jettySize=auto;html=1;exitX=0;exitY=1;exitDx=0;exitDy=0;entryX=0.5;entryY=0;entryDx=0;entryDy=0;" parent="1" source="Jdnp4UXDm0SpbqNn2VA3-3" target="Jdnp4UXDm0SpbqNn2VA3-44" edge="1">
          <mxGeometry relative="1" as="geometry">
            <mxPoint x="780" y="210" as="targetPoint" />
          </mxGeometry>
        </mxCell>
        <mxCell id="Jdnp4UXDm0SpbqNn2VA3-46" value="" style="edgeStyle=orthogonalEdgeStyle;rounded=0;orthogonalLoop=1;jettySize=auto;html=1;entryX=0.5;entryY=0;entryDx=0;entryDy=0;" parent="1" source="Jdnp4UXDm0SpbqNn2VA3-3" target="Jdnp4UXDm0SpbqNn2VA3-47" edge="1">
          <mxGeometry relative="1" as="geometry">
            <mxPoint x="772" y="200" as="targetPoint" />
          </mxGeometry>
        </mxCell>
        <mxCell id="ctVje-BhROUACd2lGfQu-1" style="edgeStyle=orthogonalEdgeStyle;rounded=0;orthogonalLoop=1;jettySize=auto;html=1;exitX=0.5;exitY=0;exitDx=0;exitDy=0;entryX=0.5;entryY=1;entryDx=0;entryDy=0;" edge="1" parent="1" source="Jdnp4UXDm0SpbqNn2VA3-3" target="Jdnp4UXDm0SpbqNn2VA3-40">
          <mxGeometry relative="1" as="geometry" />
        </mxCell>
        <mxCell id="Jdnp4UXDm0SpbqNn2VA3-3" value="User" style="ellipse;whiteSpace=wrap;html=1;fillColor=#fff2cc;strokeColor=#d6b656;movable=1;resizable=1;rotatable=1;deletable=1;editable=1;locked=0;connectable=1;" parent="1" vertex="1">
          <mxGeometry x="1110" y="-150" width="110" height="50" as="geometry" />
        </mxCell>
        <mxCell id="Jdnp4UXDm0SpbqNn2VA3-4" value="Ürün" style="ellipse;whiteSpace=wrap;html=1;fillColor=#fff2cc;strokeColor=#d6b656;" parent="1" vertex="1">
          <mxGeometry x="345" y="1060" width="120" height="50" as="geometry" />
        </mxCell>
        <mxCell id="Jdnp4UXDm0SpbqNn2VA3-20" value="" style="edgeStyle=orthogonalEdgeStyle;rounded=0;orthogonalLoop=1;jettySize=auto;html=1;entryX=0.5;entryY=1;entryDx=0;entryDy=0;" parent="1" source="Jdnp4UXDm0SpbqNn2VA3-6" target="ctVje-BhROUACd2lGfQu-55" edge="1">
          <mxGeometry relative="1" as="geometry">
            <mxPoint x="405" y="-490" as="targetPoint" />
          </mxGeometry>
        </mxCell>
        <mxCell id="Jdnp4UXDm0SpbqNn2VA3-6" value="Mağaza" style="rounded=1;whiteSpace=wrap;html=1;fillColor=#dae8fc;strokeColor=#6c8ebf;" parent="1" vertex="1">
          <mxGeometry x="350" y="340" width="120" height="60" as="geometry" />
        </mxCell>
        <mxCell id="Jdnp4UXDm0SpbqNn2VA3-8" value="" style="endArrow=classic;html=1;rounded=0;exitX=0;exitY=0;exitDx=0;exitDy=0;entryX=1;entryY=1;entryDx=0;entryDy=0;" parent="1" source="Jdnp4UXDm0SpbqNn2VA3-6" target="ctVje-BhROUACd2lGfQu-25" edge="1">
          <mxGeometry width="50" height="50" relative="1" as="geometry">
            <mxPoint x="410" y="650" as="sourcePoint" />
            <mxPoint x="-250" y="-185" as="targetPoint" />
            <Array as="points" />
          </mxGeometry>
        </mxCell>
        <mxCell id="Jdnp4UXDm0SpbqNn2VA3-11" value="" style="endArrow=classic;html=1;rounded=0;entryX=0.5;entryY=0;entryDx=0;entryDy=0;exitX=0.5;exitY=1;exitDx=0;exitDy=0;" parent="1" source="Jdnp4UXDm0SpbqNn2VA3-6" target="Jdnp4UXDm0SpbqNn2VA3-4" edge="1">
          <mxGeometry width="50" height="50" relative="1" as="geometry">
            <mxPoint x="410" y="650" as="sourcePoint" />
            <mxPoint x="460" y="600" as="targetPoint" />
          </mxGeometry>
        </mxCell>
        <mxCell id="Jdnp4UXDm0SpbqNn2VA3-12" value="" style="endArrow=classic;html=1;rounded=0;exitX=1;exitY=0;exitDx=0;exitDy=0;entryX=0;entryY=0.5;entryDx=0;entryDy=0;" parent="1" source="Jdnp4UXDm0SpbqNn2VA3-6" target="Jdnp4UXDm0SpbqNn2VA3-3" edge="1">
          <mxGeometry width="50" height="50" relative="1" as="geometry">
            <mxPoint x="410" y="650" as="sourcePoint" />
            <mxPoint x="460" y="600" as="targetPoint" />
            <Array as="points" />
          </mxGeometry>
        </mxCell>
        <mxCell id="Jdnp4UXDm0SpbqNn2VA3-22" value="" style="endArrow=classic;html=1;rounded=0;exitX=1;exitY=1;exitDx=0;exitDy=0;entryX=0;entryY=0.5;entryDx=0;entryDy=0;" parent="1" source="Jdnp4UXDm0SpbqNn2VA3-6" target="Jdnp4UXDm0SpbqNn2VA3-23" edge="1">
          <mxGeometry width="50" height="50" relative="1" as="geometry">
            <mxPoint x="450" y="560" as="sourcePoint" />
            <mxPoint x="570" y="460" as="targetPoint" />
          </mxGeometry>
        </mxCell>
        <mxCell id="Jdnp4UXDm0SpbqNn2VA3-23" value="" style="ellipse;whiteSpace=wrap;html=1;fillColor=#fff2cc;strokeColor=#d6b656;" parent="1" vertex="1">
          <mxGeometry x="1260" y="770" width="110" height="60" as="geometry" />
        </mxCell>
        <mxCell id="Jdnp4UXDm0SpbqNn2VA3-24" value="" style="endArrow=classic;html=1;rounded=0;exitX=0;exitY=1;exitDx=0;exitDy=0;entryX=1;entryY=0.5;entryDx=0;entryDy=0;" parent="1" source="Jdnp4UXDm0SpbqNn2VA3-6" target="Jdnp4UXDm0SpbqNn2VA3-25" edge="1">
          <mxGeometry width="50" height="50" relative="1" as="geometry">
            <mxPoint x="450" y="560" as="sourcePoint" />
            <mxPoint x="230" y="460" as="targetPoint" />
          </mxGeometry>
        </mxCell>
        <mxCell id="Jdnp4UXDm0SpbqNn2VA3-25" value="" style="ellipse;whiteSpace=wrap;html=1;fillColor=#fff2cc;strokeColor=#d6b656;" parent="1" vertex="1">
          <mxGeometry x="-440" y="810" width="110" height="60" as="geometry" />
        </mxCell>
        <mxCell id="Jdnp4UXDm0SpbqNn2VA3-37" value="Adress" style="ellipse;whiteSpace=wrap;html=1;fillColor=#d5e8d4;strokeColor=#82b366;" parent="1" vertex="1">
          <mxGeometry x="1390" y="-100" width="120" height="80" as="geometry" />
        </mxCell>
        <mxCell id="Jdnp4UXDm0SpbqNn2VA3-38" value="Password" style="ellipse;whiteSpace=wrap;html=1;fillColor=#d5e8d4;strokeColor=#82b366;" parent="1" vertex="1">
          <mxGeometry x="1430" y="-280" width="120" height="80" as="geometry" />
        </mxCell>
        <mxCell id="Jdnp4UXDm0SpbqNn2VA3-39" value="Email" style="ellipse;whiteSpace=wrap;html=1;fillColor=#d5e8d4;strokeColor=#82b366;" parent="1" vertex="1">
          <mxGeometry x="1340" y="-440" width="120" height="80" as="geometry" />
        </mxCell>
        <mxCell id="Jdnp4UXDm0SpbqNn2VA3-40" value="Username" style="ellipse;whiteSpace=wrap;html=1;fillColor=#d5e8d4;strokeColor=#82b366;" parent="1" vertex="1">
          <mxGeometry x="1121" y="-470" width="120" height="80" as="geometry" />
        </mxCell>
        <mxCell id="Jdnp4UXDm0SpbqNn2VA3-41" value="User ID" style="ellipse;whiteSpace=wrap;html=1;fillColor=#d5e8d4;strokeColor=#82b366;" parent="1" vertex="1">
          <mxGeometry x="940" y="-410" width="120" height="80" as="geometry" />
        </mxCell>
        <mxCell id="Jdnp4UXDm0SpbqNn2VA3-44" value="" style="ellipse;whiteSpace=wrap;html=1;fillColor=#d5e8d4;strokeColor=#82b366;" parent="1" vertex="1">
          <mxGeometry x="1220" y="70" width="120" height="80" as="geometry" />
        </mxCell>
        <mxCell id="Jdnp4UXDm0SpbqNn2VA3-47" value="" style="ellipse;whiteSpace=wrap;html=1;fillColor=#d5e8d4;strokeColor=#82b366;" parent="1" vertex="1">
          <mxGeometry x="910" y="50" width="120" height="80" as="geometry" />
        </mxCell>
        <mxCell id="ctVje-BhROUACd2lGfQu-18" style="edgeStyle=orthogonalEdgeStyle;rounded=0;orthogonalLoop=1;jettySize=auto;html=1;exitX=1;exitY=0;exitDx=0;exitDy=0;entryX=0.5;entryY=1;entryDx=0;entryDy=0;" edge="1" source="ctVje-BhROUACd2lGfQu-25" target="ctVje-BhROUACd2lGfQu-28" parent="1">
          <mxGeometry relative="1" as="geometry">
            <mxPoint x="-535" y="250" as="targetPoint" />
          </mxGeometry>
        </mxCell>
        <mxCell id="ctVje-BhROUACd2lGfQu-19" style="edgeStyle=orthogonalEdgeStyle;rounded=0;orthogonalLoop=1;jettySize=auto;html=1;exitX=1;exitY=1;exitDx=0;exitDy=0;entryX=0;entryY=0.5;entryDx=0;entryDy=0;" edge="1" source="ctVje-BhROUACd2lGfQu-25" target="ctVje-BhROUACd2lGfQu-27" parent="1">
          <mxGeometry relative="1" as="geometry">
            <mxPoint x="-525" y="390" as="targetPoint" />
          </mxGeometry>
        </mxCell>
        <mxCell id="ctVje-BhROUACd2lGfQu-20" style="edgeStyle=orthogonalEdgeStyle;rounded=0;orthogonalLoop=1;jettySize=auto;html=1;exitX=0;exitY=1;exitDx=0;exitDy=0;entryX=0.5;entryY=0;entryDx=0;entryDy=0;" edge="1" source="ctVje-BhROUACd2lGfQu-25" target="ctVje-BhROUACd2lGfQu-26" parent="1">
          <mxGeometry relative="1" as="geometry">
            <mxPoint x="-725" y="410" as="targetPoint" />
          </mxGeometry>
        </mxCell>
        <mxCell id="ctVje-BhROUACd2lGfQu-21" style="edgeStyle=orthogonalEdgeStyle;rounded=0;orthogonalLoop=1;jettySize=auto;html=1;exitX=0;exitY=0;exitDx=0;exitDy=0;entryX=0.5;entryY=1;entryDx=0;entryDy=0;" edge="1" source="ctVje-BhROUACd2lGfQu-25" target="ctVje-BhROUACd2lGfQu-30" parent="1">
          <mxGeometry relative="1" as="geometry">
            <mxPoint x="-705" y="210" as="targetPoint" />
          </mxGeometry>
        </mxCell>
        <mxCell id="ctVje-BhROUACd2lGfQu-22" style="edgeStyle=orthogonalEdgeStyle;rounded=0;orthogonalLoop=1;jettySize=auto;html=1;exitX=0;exitY=1;exitDx=0;exitDy=0;entryX=0.5;entryY=0;entryDx=0;entryDy=0;" edge="1" source="ctVje-BhROUACd2lGfQu-25" target="ctVje-BhROUACd2lGfQu-31" parent="1">
          <mxGeometry relative="1" as="geometry">
            <mxPoint x="-475" y="260" as="targetPoint" />
          </mxGeometry>
        </mxCell>
        <mxCell id="ctVje-BhROUACd2lGfQu-23" value="" style="edgeStyle=orthogonalEdgeStyle;rounded=0;orthogonalLoop=1;jettySize=auto;html=1;entryX=0.5;entryY=0;entryDx=0;entryDy=0;" edge="1" source="ctVje-BhROUACd2lGfQu-25" target="ctVje-BhROUACd2lGfQu-32" parent="1">
          <mxGeometry relative="1" as="geometry">
            <mxPoint x="-483" y="250" as="targetPoint" />
          </mxGeometry>
        </mxCell>
        <mxCell id="ctVje-BhROUACd2lGfQu-24" style="edgeStyle=orthogonalEdgeStyle;rounded=0;orthogonalLoop=1;jettySize=auto;html=1;exitX=0.5;exitY=0;exitDx=0;exitDy=0;entryX=0.5;entryY=1;entryDx=0;entryDy=0;" edge="1" source="ctVje-BhROUACd2lGfQu-25" target="ctVje-BhROUACd2lGfQu-29" parent="1">
          <mxGeometry relative="1" as="geometry" />
        </mxCell>
        <mxCell id="ctVje-BhROUACd2lGfQu-25" value="" style="ellipse;whiteSpace=wrap;html=1;fillColor=#fff2cc;strokeColor=#d6b656;movable=1;resizable=1;rotatable=1;deletable=1;editable=1;locked=0;connectable=1;" vertex="1" parent="1">
          <mxGeometry x="-340" y="-240" width="110" height="50" as="geometry" />
        </mxCell>
        <mxCell id="ctVje-BhROUACd2lGfQu-26" value="" style="ellipse;whiteSpace=wrap;html=1;fillColor=#d5e8d4;strokeColor=#82b366;" vertex="1" parent="1">
          <mxGeometry x="-550" y="-110" width="120" height="80" as="geometry" />
        </mxCell>
        <mxCell id="ctVje-BhROUACd2lGfQu-27" value="" style="ellipse;whiteSpace=wrap;html=1;fillColor=#d5e8d4;strokeColor=#82b366;" vertex="1" parent="1">
          <mxGeometry x="-30" y="-270" width="120" height="80" as="geometry" />
        </mxCell>
        <mxCell id="ctVje-BhROUACd2lGfQu-28" value="" style="ellipse;whiteSpace=wrap;html=1;fillColor=#d5e8d4;strokeColor=#82b366;" vertex="1" parent="1">
          <mxGeometry x="-290" y="-510" width="120" height="80" as="geometry" />
        </mxCell>
        <mxCell id="ctVje-BhROUACd2lGfQu-29" value="" style="ellipse;whiteSpace=wrap;html=1;fillColor=#d5e8d4;strokeColor=#82b366;" vertex="1" parent="1">
          <mxGeometry x="-470" y="-500" width="120" height="80" as="geometry" />
        </mxCell>
        <mxCell id="ctVje-BhROUACd2lGfQu-30" value="" style="ellipse;whiteSpace=wrap;html=1;fillColor=#d5e8d4;strokeColor=#82b366;" vertex="1" parent="1">
          <mxGeometry x="-590" y="-380" width="120" height="80" as="geometry" />
        </mxCell>
        <mxCell id="ctVje-BhROUACd2lGfQu-31" value="" style="ellipse;whiteSpace=wrap;html=1;fillColor=#d5e8d4;strokeColor=#82b366;" vertex="1" parent="1">
          <mxGeometry x="-80" y="-410" width="120" height="80" as="geometry" />
        </mxCell>
        <mxCell id="ctVje-BhROUACd2lGfQu-32" value="" style="ellipse;whiteSpace=wrap;html=1;fillColor=#d5e8d4;strokeColor=#82b366;" vertex="1" parent="1">
          <mxGeometry x="-230" y="-70" width="120" height="80" as="geometry" />
        </mxCell>
        <mxCell id="ctVje-BhROUACd2lGfQu-48" style="edgeStyle=orthogonalEdgeStyle;rounded=0;orthogonalLoop=1;jettySize=auto;html=1;exitX=1;exitY=0;exitDx=0;exitDy=0;entryX=0.5;entryY=1;entryDx=0;entryDy=0;" edge="1" parent="1" source="ctVje-BhROUACd2lGfQu-55" target="ctVje-BhROUACd2lGfQu-58">
          <mxGeometry relative="1" as="geometry">
            <mxPoint x="485" y="-10" as="targetPoint" />
          </mxGeometry>
        </mxCell>
        <mxCell id="ctVje-BhROUACd2lGfQu-49" style="edgeStyle=orthogonalEdgeStyle;rounded=0;orthogonalLoop=1;jettySize=auto;html=1;exitX=1;exitY=1;exitDx=0;exitDy=0;entryX=0;entryY=0.5;entryDx=0;entryDy=0;" edge="1" parent="1" source="ctVje-BhROUACd2lGfQu-55" target="ctVje-BhROUACd2lGfQu-57">
          <mxGeometry relative="1" as="geometry">
            <mxPoint x="495" y="130" as="targetPoint" />
          </mxGeometry>
        </mxCell>
        <mxCell id="ctVje-BhROUACd2lGfQu-50" style="edgeStyle=orthogonalEdgeStyle;rounded=0;orthogonalLoop=1;jettySize=auto;html=1;exitX=0;exitY=1;exitDx=0;exitDy=0;entryX=0.5;entryY=0;entryDx=0;entryDy=0;" edge="1" parent="1" source="ctVje-BhROUACd2lGfQu-55" target="ctVje-BhROUACd2lGfQu-56">
          <mxGeometry relative="1" as="geometry">
            <mxPoint x="295" y="150" as="targetPoint" />
          </mxGeometry>
        </mxCell>
        <mxCell id="ctVje-BhROUACd2lGfQu-51" style="edgeStyle=orthogonalEdgeStyle;rounded=0;orthogonalLoop=1;jettySize=auto;html=1;exitX=0;exitY=0;exitDx=0;exitDy=0;entryX=0.5;entryY=1;entryDx=0;entryDy=0;" edge="1" parent="1" source="ctVje-BhROUACd2lGfQu-55" target="ctVje-BhROUACd2lGfQu-60">
          <mxGeometry relative="1" as="geometry">
            <mxPoint x="315" y="-50" as="targetPoint" />
          </mxGeometry>
        </mxCell>
        <mxCell id="ctVje-BhROUACd2lGfQu-52" style="edgeStyle=orthogonalEdgeStyle;rounded=0;orthogonalLoop=1;jettySize=auto;html=1;exitX=0;exitY=1;exitDx=0;exitDy=0;entryX=0.5;entryY=0;entryDx=0;entryDy=0;" edge="1" parent="1" source="ctVje-BhROUACd2lGfQu-55" target="ctVje-BhROUACd2lGfQu-61">
          <mxGeometry relative="1" as="geometry">
            <mxPoint x="545" as="targetPoint" />
          </mxGeometry>
        </mxCell>
        <mxCell id="ctVje-BhROUACd2lGfQu-53" value="" style="edgeStyle=orthogonalEdgeStyle;rounded=0;orthogonalLoop=1;jettySize=auto;html=1;entryX=0.5;entryY=0;entryDx=0;entryDy=0;" edge="1" parent="1" source="ctVje-BhROUACd2lGfQu-55" target="ctVje-BhROUACd2lGfQu-62">
          <mxGeometry relative="1" as="geometry">
            <mxPoint x="537" y="-10" as="targetPoint" />
          </mxGeometry>
        </mxCell>
        <mxCell id="ctVje-BhROUACd2lGfQu-55" value="" style="ellipse;whiteSpace=wrap;html=1;fillColor=#fff2cc;strokeColor=#d6b656;movable=1;resizable=1;rotatable=1;deletable=1;editable=1;locked=0;connectable=1;" vertex="1" parent="1">
          <mxGeometry x="340" y="-609" width="110" height="50" as="geometry" />
        </mxCell>
        <mxCell id="ctVje-BhROUACd2lGfQu-56" value="" style="ellipse;whiteSpace=wrap;html=1;fillColor=#d5e8d4;strokeColor=#82b366;" vertex="1" parent="1">
          <mxGeometry x="180" y="-410" width="120" height="80" as="geometry" />
        </mxCell>
        <mxCell id="ctVje-BhROUACd2lGfQu-57" value="" style="ellipse;whiteSpace=wrap;html=1;fillColor=#d5e8d4;strokeColor=#82b366;" vertex="1" parent="1">
          <mxGeometry x="530" y="-460" width="120" height="80" as="geometry" />
        </mxCell>
        <mxCell id="ctVje-BhROUACd2lGfQu-58" value="" style="ellipse;whiteSpace=wrap;html=1;fillColor=#d5e8d4;strokeColor=#82b366;" vertex="1" parent="1">
          <mxGeometry x="510" y="-870" width="120" height="80" as="geometry" />
        </mxCell>
        <mxCell id="ctVje-BhROUACd2lGfQu-63" style="edgeStyle=orthogonalEdgeStyle;rounded=0;orthogonalLoop=1;jettySize=auto;html=1;exitX=0.5;exitY=1;exitDx=0;exitDy=0;entryX=0.5;entryY=0;entryDx=0;entryDy=0;" edge="1" parent="1" source="ctVje-BhROUACd2lGfQu-59" target="ctVje-BhROUACd2lGfQu-55">
          <mxGeometry relative="1" as="geometry">
            <mxPoint x="610.2857142857147" y="-670" as="targetPoint" />
          </mxGeometry>
        </mxCell>
        <mxCell id="ctVje-BhROUACd2lGfQu-59" value="" style="ellipse;whiteSpace=wrap;html=1;fillColor=#d5e8d4;strokeColor=#82b366;" vertex="1" parent="1">
          <mxGeometry x="260" y="-890" width="120" height="80" as="geometry" />
        </mxCell>
        <mxCell id="ctVje-BhROUACd2lGfQu-60" value="" style="ellipse;whiteSpace=wrap;html=1;fillColor=#d5e8d4;strokeColor=#82b366;" vertex="1" parent="1">
          <mxGeometry x="100" y="-780" width="120" height="80" as="geometry" />
        </mxCell>
        <mxCell id="ctVje-BhROUACd2lGfQu-61" value="" style="ellipse;whiteSpace=wrap;html=1;fillColor=#d5e8d4;strokeColor=#82b366;" vertex="1" parent="1">
          <mxGeometry x="630" y="-689" width="120" height="80" as="geometry" />
        </mxCell>
        <mxCell id="ctVje-BhROUACd2lGfQu-62" value="" style="ellipse;whiteSpace=wrap;html=1;fillColor=#d5e8d4;strokeColor=#82b366;" vertex="1" parent="1">
          <mxGeometry x="650" y="-550" width="120" height="80" as="geometry" />
        </mxCell>
      </root>
    </mxGraphModel>
  </diagram>
</mxfile>
